{"title":"101 Dalmatians  (Comedy 1996)  Glenn Close, Jeff Daniels &amp; J","uid":9487027,"size":574223248,"categoryP":"video","categoryS":"movies","magnet":"?xt=urn:btih:edf557eee6b17da14832493382057c859f9fea27&amp;dn=101+Dalmatians++%28Comedy+1996%29++Glenn+Close%2C+Jeff+Daniels+%26amp%3B+J&amp;tr=udp%3A%2F%2Ftracker.openbittorrent.com%3A80&amp;tr=udp%3A%2F%2Fopen.demonii.com%3A1337&amp;tr=udp%3A%2F%2Ftracker.coppersurfer.tk%3A6969&amp;tr=udp%3A%2F%2Fexodus.desync.com%3A6969","seeders":4,"leechers":1,"uploader":"BurtonW","files":1,"time":1389916218,"description":" &lt;a href=&quot;http://www.imdb.com/title/tt0115433/?ref_=fn_al_tt_1&quot; rel=&quot;nofollow&quot; target=&quot;_NEW&quot;&gt;http://www.imdb.com/title/tt0115433/?ref_=fn_al_tt_1&lt;/a&gt;\n\n\nA very good quality film.\n\n\nEnglish subtitles!\n\n\nStoryline:\n\n   Fashion designer Anita and computer-game writer Roger meet, fall in love and marry along with their dalmatians Perdita and Pongo. But the proud dogs' puppies are kidnapped by Anita's boss Cruella De Vil, who is stealing young dalmatians to make the coat she has set her heart on. Enlisting the help of the British animal kingdom, Pongo and Perdita set out to find and rescue all ninety-nine pups from their fearsome captors, Jasper and Horace.\n\n\nTechnical info:\n\n\nGeneral:\n\nComplete name:                  : 101 Dalmatians  (Comedy 1996)  Glenn Close, Jeff Daniels &amp; Joely Richardson.mp4\n\nFormat                         : MPEG-4\nFormat profile                 : Base Media / Version 2\nCodec ID                       : mp42\nFile size                      : 548 MiB\nDuration                       : 1h 42mn\nOverall bit rate mode          : Variable\nOverall bit rate               : 744 Kbps\nEncoded date                   : UTC 2014-01-16 08:35:30\nTagged date                    : UTC 2014-01-16 10:51:23\n\n\nVideo:\n\nID                             : 1\nFormat                         : AVC\nFormat/Info                    : Advanced Video Codec\nFormat profile                 : &lt;a class=&quot;__cf_email__&quot; href=&quot;/cdn-cgi/l/email-protection&quot; data-cfemail=&quot;692408000729255d4759&quot;&gt;[email&amp;#160;protected]&lt;/a&gt;&lt;script cf-hash='f9e31' type=&quot;text/javascript&quot;&gt;\n/* &lt;![CDATA[ */!function(){try{var t=&quot;currentScript&quot;in document?document.currentScript:function(){for(var t=document.getElementsByTagName(&quot;script&quot;),e=t.length;e--;)if(t[e].getAttribute(&quot;cf-hash&quot;))return t[e]}();if(t&amp;&amp;t.previousSibling){var e,r,n,i,c=t.previousSibling,a=c.getAttribute(&quot;data-cfemail&quot;);if(a){for(e=&quot;&quot;,r=parseInt(a.substr(0,2),16),n=2;a.length-n;n+=2)i=parseInt(a.substr(n,2),16)^r,e+=String.fromCharCode(i);e=document.createTextNode(e),c.parentNode.replaceChild(e,c)}}}catch(u){}}();/* ]]&gt; */&lt;/script&gt;\nFormat settings, CABAC         : Yes\nFormat settings, ReFrames      : 8 frames\nCodec ID                       : avc1\nCodec ID/Info                  : Advanced Video Coding\nDuration                       : 1h 42mn\nBit rate mode                  : Variable\nBit rate                       : 576 Kbps\nWidth                          : 720 pixels\nHeight                         : 304 pixels\nDisplay aspect ratio           : 2.35:1\nFrame rate mode                : Variable\nFrame rate                     : 23.976 fps\nMinimum frame rate             : 23.974 fps\nMaximum frame rate             : 23.981 fps\nColor space                    : YUV\nChroma subsampling             : 4:2:0\nBit depth                      : 8 bits\nScan type                      : Progressive\nBits/(Pixel*Frame)             : 0.110\nStream size                    : 424 MiB (77%)\nWriting library                : x264 core 130 r2273 b3065e6\nEncoding settings              : Deleted\nEncoded date                   : UTC 2014-01-16 08:35:30\nTagged date                    : UTC 2014-01-16 10:51:23\nColor primaries                : BT.601 NTSC\nTransfer characteristics       : BT.709\nMatrix coefficients            : BT.601\n\nAudio:\n\nID                             : 2\nFormat                         : AAC\nFormat/Info                    : Advanced Audio Codec\nFormat profile                 : LC\nCodec ID                       : 40\nDuration                       : 1h 42mn\nBit rate mode                  : Variable\nBit rate                       : 160 Kbps\nMaximum bit rate               : 195 Kbps\nChannel(s)                     : 2 channels\nChannel positions              : Front: L R\nSampling rate                  : 48.0 KHz\nCompression mode               : Lossy\nDelay relative to video        : 83ms\nStream size                    : 118 MiB (21%)\nLanguage                       : English\nEncoded date                   : UTC 2014-01-16 08:35:30\nTagged date                    : UTC 2014-01-16 10:51:22\n\nText:\n\nID                             : 3\nFormat                         : mp4s\nCodec ID                       : E0\nDuration                       : 1h 42mn\nBit rate mode                  : Variable\nBit rate                       : 3 281 bps\nMaximum bit rate               : 4 144 Mbps\nDelay relative to video        : 83ms\nStream size                    : 2.41 MiB (0%)\nLanguage                       : English\nEncoded date                   : UTC 2014-01-16 08:35:30\nTagged date                    : UTC 2014-01-16 10:51:22\n\n","torrent":{"xt":"urn:btih:edf557eee6b17da14832493382057c859f9fea27","amp;dn":"101+Dalmatians++%28Comedy+1996%29++Glenn+Close%2C+Jeff+Daniels+%26amp%3B+J","amp;tr":["udp%3A%2F%2Ftracker.openbittorrent.com%3A80","udp%3A%2F%2Fopen.demonii.com%3A1337","udp%3A%2F%2Ftracker.coppersurfer.tk%3A6969","udp%3A%2F%2Fexodus.desync.com%3A6969"],"infoHash":"edf557eee6b17da14832493382057c859f9fea27","infoHashBuffer":{"type":"Buffer","data":[237,245,87,238,230,177,125,161,72,50,73,51,130,5,124,133,159,159,234,39]},"announce":[],"urlList":[]}}